<svg width="140" height="52" viewBox="0 0 140 52" fill="none" xmlns="http://www.w3.org/2000/svg">
<path d="M10.1465 25.3333C11.5557 25.3333 12.8663 25.5972 14.0782 26.125C15.3183 26.6528 16.3893 27.375 17.2913 28.2917C18.2213 29.1805 18.9541 30.2361 19.4897 31.4583C20.0252 32.6528 20.2929 33.9444 20.2929 35.3333V45.3333H16.4034V35.3333C16.4034 34.4722 16.2343 33.6667 15.8961 32.9167C15.5861 32.1667 15.1492 31.5139 14.5855 30.9583C14.0218 30.4028 13.3595 29.9722 12.5985 29.6667C11.8375 29.3333 11.0202 29.1667 10.1465 29.1667C9.27274 29.1667 8.45538 29.3333 7.6944 29.6667C6.93341 29.9722 6.27108 30.4028 5.70738 30.9583C5.14369 31.5139 4.69274 32.1667 4.35452 32.9167C4.04449 33.6667 3.88948 34.4722 3.88948 35.3333V45.3333H0V18.6667H3.88948V27.5C4.7632 26.8055 5.72148 26.2778 6.76431 25.9167C7.83532 25.5278 8.96271 25.3333 10.1465 25.3333Z" fill="white"/>
<path d="M27.736 37.375C28.1869 38.5972 28.9338 39.5972 29.9766 40.375C31.0477 41.125 32.2737 41.5 33.6547 41.5C34.8385 41.5 35.9236 41.1944 36.9101 40.5833L39.7003 43.3333C38.8548 43.9722 37.9247 44.4722 36.9101 44.8333C35.8954 45.1667 34.8103 45.3333 33.6547 45.3333C32.2455 45.3333 30.9208 45.0694 29.6807 44.5417C28.4688 44.0139 27.3977 43.3055 26.4677 42.4167C25.5657 41.5 24.847 40.4444 24.3115 39.25C23.776 38.0278 23.5083 36.7222 23.5083 35.3333C23.5083 33.9444 23.776 32.6528 24.3115 31.4583C24.847 30.2361 25.5657 29.1805 26.4677 28.2917C27.3977 27.375 28.4688 26.6528 29.6807 26.125C30.9208 25.5972 32.2455 25.3333 33.6547 25.3333C35.064 25.3333 36.3745 25.5972 37.5865 26.125C38.8266 26.6528 39.8976 27.375 40.7995 28.2917C41.7296 29.1805 42.4624 30.2361 42.9979 31.4583C43.5334 32.6528 43.8012 33.9444 43.8012 35.3333C43.8012 35.6944 43.773 36.0417 43.7166 36.375C43.6885 36.7083 43.6462 37.0417 43.5898 37.375H27.736ZM39.6581 33.5417C39.2635 32.2639 38.5166 31.2222 37.4174 30.4167C36.3464 29.5833 35.0921 29.1667 33.6547 29.1667C32.2173 29.1667 30.949 29.5833 29.8498 30.4167C28.7788 31.2222 28.046 32.2639 27.6514 33.5417H39.6581Z" fill="white"/>
<path d="M67.0168 45.3333H63.1274V35.3333C63.1274 34.4722 62.9582 33.6667 62.62 32.9167C62.31 32.1667 61.8731 31.5139 61.3094 30.9583C60.7458 30.4028 60.0834 29.9722 59.3224 29.6667C58.5614 29.3333 57.7441 29.1667 56.8704 29.1667C55.9967 29.1667 55.1793 29.3333 54.4183 29.6667C53.6573 29.9722 52.995 30.4028 52.4313 30.9583C51.8676 31.5139 51.4167 32.1667 51.0784 32.9167C50.7684 33.6667 50.6134 34.4722 50.6134 35.3333V45.3333H46.7239V35.3333C46.7239 33.9444 46.9917 32.6528 47.5272 31.4583C48.0627 30.2361 48.7814 29.1805 49.6833 28.2917C50.6134 27.375 51.6844 26.6528 52.8963 26.125C54.1365 25.5972 55.4611 25.3333 56.8704 25.3333C58.2796 25.3333 59.5902 25.5972 60.8021 26.125C62.0422 26.6528 63.1133 27.375 64.0152 28.2917C64.9453 29.1805 65.6781 30.2361 66.2136 31.4583C66.7491 32.6528 67.0168 33.9444 67.0168 35.3333V45.3333Z" fill="white"/>
<path d="M82.2696 25.3333V29.1667H77.45V45.3333H73.5182V29.1667H68.7409V25.3333H73.5605V18.6667H77.45V25.3333H82.2696Z" fill="white"/>
<path d="M100.148 25.3333H104.038V45.3333H100.148V43.1667C99.2743 43.8611 98.302 44.4028 97.2309 44.7917C96.1881 45.1528 95.0748 45.3333 93.8911 45.3333C92.4818 45.3333 91.1572 45.0694 89.917 44.5417C88.7051 44.0139 87.6341 43.3055 86.704 42.4167C85.8021 41.5 85.0834 40.4444 84.5479 39.25C84.0124 38.0278 83.7446 36.7222 83.7446 35.3333C83.7446 33.9444 84.0124 32.6528 84.5479 31.4583C85.0834 30.2361 85.8021 29.1805 86.704 28.2917C87.6341 27.375 88.7051 26.6528 89.917 26.125C91.1572 25.5972 92.4818 25.3333 93.8911 25.3333C95.0748 25.3333 96.1881 25.5278 97.2309 25.9167C98.302 26.2778 99.2743 26.8055 100.148 27.5V25.3333ZM100.148 35.3333C100.148 34.4722 99.979 33.6667 99.6407 32.9167C99.3307 32.1667 98.8938 31.5139 98.3301 30.9583C97.7665 30.4028 97.1041 29.9722 96.3431 29.6667C95.5821 29.3333 94.7648 29.1667 93.8911 29.1667C93.0173 29.1667 92.2 29.3333 91.439 29.6667C90.678 29.9722 90.0157 30.4028 89.452 30.9583C88.8883 31.5139 88.4374 32.1667 88.0991 32.9167C87.7891 33.6667 87.6341 34.4722 87.6341 35.3333C87.6341 36.1944 87.7891 37 88.0991 37.75C88.4374 38.5 88.8883 39.1528 89.452 39.7083C90.0157 40.2639 90.678 40.7083 91.439 41.0417C92.2 41.3472 93.0173 41.5 93.8911 41.5C94.7648 41.5 95.5821 41.3472 96.3431 41.0417C97.1041 40.7083 97.7665 40.2639 98.3301 39.7083C98.8938 39.1528 99.3307 38.5 99.6407 37.75C99.979 37 100.148 36.1944 100.148 35.3333Z" fill="white"/>
<path d="M114.074 33.4167C114.92 33.4167 115.709 33.5694 116.442 33.875C117.175 34.1805 117.809 34.6111 118.344 35.1667C118.908 35.6944 119.345 36.3194 119.655 37.0417C119.965 37.7639 120.12 38.5417 120.12 39.375C120.12 40.2083 119.965 40.9861 119.655 41.7083C119.345 42.4305 118.908 43.0694 118.344 43.625C117.809 44.1528 117.175 44.5694 116.442 44.875C115.709 45.1805 114.92 45.3333 114.074 45.3333C113.229 45.3333 112.44 45.1805 111.707 44.875C110.974 44.5694 110.326 44.1528 109.762 43.625C109.227 43.0694 108.804 42.4305 108.494 41.7083C108.184 40.9861 108.029 40.2083 108.029 39.375H111.918C111.918 39.9583 112.13 40.4583 112.552 40.875C112.975 41.2917 113.482 41.5 114.074 41.5C114.666 41.5 115.174 41.2917 115.596 40.875C116.019 40.4583 116.23 39.9583 116.23 39.375C116.23 38.7917 116.019 38.2917 115.596 37.875C115.174 37.4583 114.666 37.25 114.074 37.25C113.229 37.25 112.44 37.0972 111.707 36.7917C110.974 36.4861 110.326 36.0694 109.762 35.5417C109.227 34.9861 108.804 34.3472 108.494 33.625C108.184 32.9028 108.029 32.125 108.029 31.2917C108.029 30.4583 108.184 29.6805 108.494 28.9583C108.804 28.2361 109.227 27.6111 109.762 27.0833C110.326 26.5278 110.974 26.0972 111.707 25.7917C112.44 25.4861 113.229 25.3333 114.074 25.3333C114.92 25.3333 115.709 25.4861 116.442 25.7917C117.175 26.0972 117.809 26.5278 118.344 27.0833C118.908 27.6111 119.345 28.2361 119.655 28.9583C119.965 29.6805 120.12 30.4583 120.12 31.2917H116.23C116.23 30.7083 116.019 30.2083 115.596 29.7917C115.174 29.375 114.666 29.1667 114.074 29.1667C113.482 29.1667 112.975 29.375 112.552 29.7917C112.13 30.2083 111.918 30.7083 111.918 31.2917C111.918 31.875 112.13 32.375 112.552 32.7917C112.975 33.2083 113.482 33.4167 114.074 33.4167Z" fill="white"/>
<path d="M140 25.3333L126.471 52H122.117L128.881 38.6667L122.117 25.3333H126.471L131.037 34.375L135.645 25.3333H140Z" fill="white"/>
<path d="M75.6 9.22902L76.8704 10.4578C77.1245 10.1183 77.4971 9.61706 77.8528 9.21285C78.615 8.3074 80.0379 6.54502 80.8509 5.59106C81.4268 4.92815 81.7487 4.87964 82.3923 5.47788C83.1207 6.1408 84.679 7.7415 85.6614 8.80863C86.7624 9.98894 88.253 11.6381 89.4557 13.0287L90.6075 11.8483C89.3032 10.5225 87.6263 8.76013 86.4745 7.61215C85.4921 6.60969 84.0353 5.15451 83.0021 4.21673C81.8503 3.18193 81.0542 3.35979 80.1564 4.37841C79.0893 5.5749 77.6157 7.36962 76.8026 8.14572C76.3622 8.58227 76.0404 8.87331 75.6 9.22902Z" fill="#FF005C"/>
<path d="M95.3502 1.93694L94.3678 2.92323C95.6382 3.7155 97.7386 5.46172 98.6024 6.30249L99.6526 5.26769C98.721 4.37841 96.5359 2.69687 95.3502 1.93694ZM93.8935 12.77L94.7743 14.0958C97.6031 13.5946 99.7373 12.5921 101.448 11.5735C104.006 10.0375 105.971 7.83851 107.122 5.8336L106.309 4.44309C105.327 6.44801 103.277 8.84097 100.652 10.4093C99.0428 11.3633 96.8408 12.3496 93.8935 12.77Z" fill="#FF005C"/>
<path d="M115.473 6.36716L114.542 7.27261C116.642 8.51759 119.538 10.5063 121.097 11.8645L122.096 10.7327C120.419 9.43921 117.641 7.57981 115.473 6.36716ZM123.214 3.42446L122.096 2.77772C121.825 2.87473 121.452 2.92323 120.995 2.92323H115.609L115.067 4.08738H121.334C120.944 5.59106 119.877 7.64449 118.573 9.13201C117.048 10.8621 114.745 12.5759 111.594 13.4814L112.797 14.5C116.015 13.3682 118.217 11.6381 119.759 9.82726C121.249 8.08104 122.316 5.93061 122.824 4.2814C122.909 4.0227 123.078 3.65082 123.214 3.42446ZM117.506 1.08001L115.964 0.611115C115.863 1.0315 115.592 1.61357 115.422 1.88844C114.643 3.37596 112.898 5.80126 110.002 7.53131L111.12 8.35591C113.83 6.57735 115.744 4.13588 116.743 2.35733C116.913 2.05013 117.218 1.50039 117.506 1.08001Z" fill="#FF005C"/>
<path d="M126.839 7.93552L127.499 9.19668C130.227 8.38825 132.92 7.20793 134.783 6.10846C136.765 4.92815 138.543 3.56998 140 2.13097L138.865 1.11234C137.696 2.47051 136.003 3.86102 134.224 4.92815C132.344 6.04379 129.769 7.19176 126.839 7.93552ZM133.953 5.59106V12.5598C133.953 13.158 133.902 13.9664 133.851 14.2736H135.528C135.444 13.9664 135.41 13.158 135.41 12.5598V5.17068L133.953 5.59106Z" fill="#FF005C"/>
</svg>
