<svg viewBox="0 0 24 24" fill="none" xmlns="http://www.w3.org/2000/svg">
<path d="M5.82322 6.23744L17.4905 17.9047C17.6311 18.0454 17.8033 18.143 17.969 18.1761C18.1348 18.2093 18.2806 18.1752 18.3744 18.0815C18.4681 17.9877 18.5022 17.8419 18.469 17.6761C18.4359 17.5104 18.3382 17.3382 18.1976 17.1976L6.53033 5.53033C6.38968 5.38968 6.21754 5.29204 6.05178 5.25888C5.88602 5.22573 5.74021 5.25979 5.64645 5.35355C5.55268 5.44732 5.51862 5.59312 5.55178 5.75888C5.58493 5.92464 5.68257 6.09678 5.82322 6.23744Z" fill="#736E7D"/>
<path d="M17.1976 5.53031L5.53033 17.1976C5.38968 17.3382 5.29204 17.5104 5.25888 17.6761C5.22573 17.8419 5.25979 17.9877 5.35355 18.0815C5.44732 18.1752 5.59312 18.2093 5.75888 18.1761C5.92464 18.143 6.09678 18.0453 6.23744 17.9047L17.9047 6.23742C18.0454 6.09677 18.143 5.92463 18.1761 5.75887C18.2093 5.59311 18.1752 5.4473 18.0815 5.35354C17.9877 5.25977 17.8419 5.22571 17.6761 5.25887C17.5104 5.29202 17.3382 5.38966 17.1976 5.53031Z" fill="#736E7D"/>
</svg>
