<svg width="18" height="18" viewBox="0 0 18 18" fill="none" xmlns="http://www.w3.org/2000/svg">
<g clip-path="url(#clip0_1490_4282)">
<path d="M12.75 16.5H5.25004C4.94254 16.5 4.68754 16.245 4.68754 15.9375C4.68754 15.63 4.94254 15.375 5.25004 15.375H12.75C13.0575 15.375 13.3125 15.63 13.3125 15.9375C13.3125 16.245 13.0575 16.5 12.75 16.5ZM15.2625 4.14L12.2625 6.285C11.865 6.57 11.295 6.3975 11.1225 5.94L9.70504 2.16C9.46504 1.5075 8.54254 1.5075 8.30254 2.16L6.87754 5.9325C6.70504 6.3975 6.14254 6.57 5.74504 6.2775L2.74504 4.1325C2.14504 3.7125 1.35004 4.305 1.59754 5.0025L4.71754 13.74C4.82254 14.04 5.10754 14.235 5.42254 14.235H12.57C12.885 14.235 13.17 14.0325 13.275 13.74L16.395 5.0025C16.65 4.305 15.855 3.7125 15.2625 4.14ZM10.875 11.0625H7.12504C6.81754 11.0625 6.56254 10.8075 6.56254 10.5C6.56254 10.1925 6.81754 9.9375 7.12504 9.9375H10.875C11.1825 9.9375 11.4375 10.1925 11.4375 10.5C11.4375 10.8075 11.1825 11.0625 10.875 11.0625Z" fill="#70707C"/>
</g>
<defs>
<clipPath id="clip0_1490_4282">
<rect width="18" height="18" fill="white"/>
</clipPath>
</defs>
</svg>
