<svg width="18" height="18" viewBox="0 0 18 18" fill="none" xmlns="http://www.w3.org/2000/svg">
<path d="M16.6002 5.76609C16.4432 5.63706 16.2524 5.55407 16.0496 5.5266C15.8469 5.49913 15.6404 5.52828 15.4537 5.61073L11.9799 7.13057L9.96147 3.55049C9.865 3.38335 9.72523 3.24435 9.55639 3.14764C9.38755 3.05094 9.19568 3 9.00033 3C8.80497 3 8.6131 3.05094 8.44426 3.14764C8.27542 3.24435 8.13565 3.38335 8.03918 3.55049L6.02077 7.13057L2.54692 5.61073C2.35984 5.5284 2.15309 5.49922 1.95004 5.52646C1.74698 5.5537 1.55572 5.63629 1.39788 5.76489C1.24004 5.89349 1.1219 6.06297 1.05684 6.25418C0.99177 6.44538 0.982363 6.65068 1.02968 6.84687L2.77347 14.1624C2.80682 14.304 2.86904 14.4375 2.95636 14.5548C3.04369 14.6721 3.15431 14.7707 3.28151 14.8446C3.45372 14.9461 3.65062 14.9998 3.85133 15C3.9489 14.9998 4.04596 14.9862 4.13967 14.9595C7.3182 14.0948 10.6756 14.0948 13.8541 14.9595C14.1443 15.0345 14.453 14.9932 14.7123 14.8446C14.8403 14.7716 14.9515 14.6733 15.0389 14.5559C15.1264 14.4384 15.1881 14.3045 15.2203 14.1624L16.971 6.84687C17.0178 6.65063 17.0078 6.44542 16.9423 6.25444C16.8768 6.06345 16.7583 5.8943 16.6002 5.76609Z" fill="#0F0F0F"/>
</svg>
