<svg width="18" height="18" viewBox="0 0 18 18" fill="none" xmlns="http://www.w3.org/2000/svg">
<path d="M17.3883 11.9391L14.9977 3.97974C14.9517 3.81876 14.8696 3.67043 14.7574 3.54612C14.6453 3.42181 14.5062 3.32481 14.3508 3.26256H14.3086L14.3508 3.24849C13.5664 2.93419 12.7542 2.69408 11.925 2.53131C11.8525 2.51698 11.7779 2.51707 11.7055 2.53158C11.633 2.54609 11.5642 2.57473 11.5028 2.61587C11.4414 2.657 11.3887 2.70983 11.3478 2.77132C11.3068 2.83282 11.2784 2.90178 11.2641 2.97427C11.2487 3.04634 11.2478 3.12074 11.2615 3.19315C11.2751 3.26556 11.3031 3.33453 11.3436 3.39604C11.3842 3.45755 11.4366 3.51038 11.4978 3.55144C11.559 3.5925 11.6277 3.62098 11.7 3.63521C12.0164 3.69849 12.3258 3.77584 12.6281 3.86021C12.7395 3.91802 12.8283 4.01139 12.8805 4.12549C12.9327 4.23959 12.9453 4.36786 12.9162 4.48991C12.8871 4.61196 12.818 4.72078 12.72 4.79906C12.6219 4.87734 12.5005 4.92059 12.375 4.92193H12.3188C11.2352 4.63935 10.1198 4.49756 9.00002 4.50006C7.90656 4.4968 6.8172 4.63385 5.75862 4.90787C5.62391 4.94341 5.48081 4.9277 5.35703 4.86378C5.23324 4.79986 5.13758 4.69228 5.08857 4.56188C5.03956 4.43147 5.04068 4.28751 5.09173 4.15789C5.14277 4.02826 5.2401 3.92219 5.36487 3.86021H5.3719C5.67424 3.77584 5.98362 3.69849 6.30002 3.63521C6.37251 3.62091 6.44148 3.59247 6.50297 3.55152C6.56447 3.51056 6.61729 3.45789 6.65843 3.39651C6.69957 3.33513 6.72821 3.26625 6.74272 3.1938C6.75723 3.12136 6.75732 3.04676 6.74299 2.97427C6.71243 2.82878 6.6262 2.70101 6.5027 2.61824C6.37921 2.53547 6.22824 2.50427 6.08205 2.53131C5.24985 2.69772 4.43528 2.94256 3.64924 3.26256C3.49384 3.32481 3.35475 3.42181 3.24262 3.54612C3.13049 3.67043 3.04831 3.81876 3.00237 3.97974L0.611742 11.9391C0.549724 12.1472 0.549254 12.3688 0.610389 12.5772C0.671523 12.7855 0.791651 12.9717 0.956273 13.1133C1.02096 13.1756 1.08903 13.2343 1.16018 13.2891H1.16721C2.30627 14.2172 3.80393 14.9274 5.49143 15.3352C5.53462 15.349 5.57967 15.3562 5.62502 15.3563C5.7641 15.3585 5.89905 15.3091 6.00384 15.2176C6.10863 15.1262 6.17581 14.9991 6.19241 14.861C6.20902 14.7229 6.17387 14.5836 6.09376 14.4699C6.01365 14.3562 5.89425 14.2762 5.75862 14.2454C4.99998 14.0621 4.26243 13.8006 3.55784 13.4649C3.4614 13.3745 3.39986 13.2531 3.38401 13.1219C3.36816 12.9907 3.39901 12.8581 3.47115 12.7474C3.54329 12.6366 3.65212 12.5549 3.77854 12.5163C3.90496 12.4778 4.0409 12.4851 4.16252 12.5368C5.49846 13.1274 7.17893 13.5001 9.00002 13.5001C10.8211 13.5001 12.5016 13.1274 13.8375 12.5368C13.9591 12.4851 14.0951 12.4778 14.2215 12.5163C14.3479 12.5549 14.4568 12.6366 14.5289 12.7474C14.601 12.8581 14.6319 12.9907 14.616 13.1219C14.6002 13.2531 14.5386 13.3745 14.4422 13.4649C13.7376 13.8006 13.0001 14.0621 12.2414 14.2454C12.1058 14.2762 11.9864 14.3562 11.9063 14.4699C11.8262 14.5836 11.791 14.7229 11.8076 14.861C11.8242 14.9991 11.8914 15.1262 11.9962 15.2176C12.101 15.3091 12.236 15.3585 12.375 15.3563C12.4204 15.3562 12.4654 15.349 12.5086 15.3352C14.1961 14.9274 15.6938 14.2172 16.8328 13.2891H16.8399C16.911 13.2343 16.9791 13.1756 17.0438 13.1133C17.2084 12.9717 17.3285 12.7855 17.3897 12.5772C17.4508 12.3688 17.4503 12.1472 17.3883 11.9391ZM6.75002 10.9688C6.58315 10.9688 6.42001 10.9193 6.28126 10.8266C6.14251 10.7339 6.03436 10.6021 5.9705 10.4479C5.90664 10.2938 5.88993 10.1241 5.92249 9.96045C5.95504 9.79678 6.0354 9.64644 6.1534 9.52843C6.2714 9.41043 6.42174 9.33007 6.58542 9.29752C6.74909 9.26496 6.91874 9.28167 7.07291 9.34553C7.22709 9.40939 7.35886 9.51754 7.45158 9.65629C7.54429 9.79505 7.59377 9.95818 7.59377 10.1251C7.59377 10.3488 7.50488 10.5634 7.34664 10.7217C7.18841 10.8799 6.9738 10.9688 6.75002 10.9688ZM11.25 10.9688C11.0831 10.9688 10.92 10.9193 10.7813 10.8266C10.6425 10.7339 10.5344 10.6021 10.4705 10.4479C10.4066 10.2938 10.3899 10.1241 10.4225 9.96045C10.455 9.79678 10.5354 9.64644 10.6534 9.52843C10.7714 9.41043 10.9217 9.33007 11.0854 9.29752C11.2491 9.26496 11.4187 9.28167 11.5729 9.34553C11.7271 9.40939 11.8589 9.51754 11.9516 9.65629C12.0443 9.79505 12.0938 9.95818 12.0938 10.1251C12.0938 10.3488 12.0049 10.5634 11.8466 10.7217C11.6884 10.8799 11.4738 10.9688 11.25 10.9688Z" fill="white"/>
</svg>
