<svg width="18" height="18" viewBox="0 0 18 18" fill="none" xmlns="http://www.w3.org/2000/svg">
<g clip-path="url(#clip0_1490_4540)">
<path d="M11.1975 1.875V6.3C11.1975 6.63 10.8075 6.795 10.5675 6.5775L9.25499 5.37C9.18598 5.30503 9.09477 5.26885 8.99999 5.26885C8.90521 5.26885 8.814 5.30503 8.74499 5.37L7.43249 6.57C7.19249 6.795 6.80249 6.6225 6.80249 6.3V1.875C6.80249 1.665 6.96749 1.5 7.17749 1.5H10.8225C11.0325 1.5 11.1975 1.665 11.1975 1.875Z" fill="#70707C"/>
<path d="M12.735 1.54424C12.5175 1.51424 12.3225 1.70174 12.3225 1.91924V6.43425C12.3225 7.00424 11.985 7.52174 11.46 7.75424C10.935 7.97924 10.3275 7.88174 9.9075 7.49174L9.255 6.89174C9.18599 6.82677 9.09478 6.79059 9 6.79059C8.90522 6.79059 8.81401 6.82677 8.745 6.89174L8.0925 7.49174C7.8225 7.74674 7.47 7.87424 7.1175 7.87424C6.91874 7.87496 6.72202 7.83408 6.54 7.75424C6.015 7.52174 5.6775 7.00424 5.6775 6.43425V1.91924C5.6775 1.70174 5.4825 1.51424 5.265 1.54424C3.165 1.80674 2.25 3.22424 2.25 5.24924V12.7492C2.25 14.9992 3.375 16.4992 6 16.4992H12C14.625 16.4992 15.75 14.9992 15.75 12.7492V5.24924C15.75 3.22424 14.835 1.80674 12.735 1.54424ZM13.125 14.0617H6.75C6.4425 14.0617 6.1875 13.8067 6.1875 13.4992C6.1875 13.1917 6.4425 12.9367 6.75 12.9367H13.125C13.4325 12.9367 13.6875 13.1917 13.6875 13.4992C13.6875 13.8067 13.4325 14.0617 13.125 14.0617ZM13.125 11.0617H9.9375C9.63 11.0617 9.375 10.8067 9.375 10.4992C9.375 10.1917 9.63 9.93674 9.9375 9.93674H13.125C13.4325 9.93674 13.6875 10.1917 13.6875 10.4992C13.6875 10.8067 13.4325 11.0617 13.125 11.0617Z" fill="#70707C"/>
</g>
<defs>
<clipPath id="clip0_1490_4540">
<rect width="18" height="18" fill="white"/>
</clipPath>
</defs>
</svg>
