<svg width="18" height="18" viewBox="0 0 18 18" fill="none" xmlns="http://www.w3.org/2000/svg">
<path d="M17.2758 5.46335L15.1523 7.57975C14.7305 12.4946 10.582 16.3126 5.625 16.3126C4.60547 16.3126 3.76172 16.1508 3.12188 15.8344C2.6086 15.5743 2.39766 15.3001 2.34141 15.2157C2.29487 15.145 2.26488 15.0647 2.25368 14.9808C2.24247 14.8969 2.25034 14.8116 2.2767 14.7312C2.30306 14.6508 2.34722 14.5773 2.40591 14.5163C2.46459 14.4554 2.53628 14.4084 2.61563 14.379C2.62969 14.3719 4.28907 13.7391 5.36485 12.5227C4.69768 12.0477 4.11128 11.4684 3.62813 10.8071C2.66485 9.49928 1.64532 7.22819 2.25704 3.83913C2.27627 3.73837 2.32235 3.64468 2.39042 3.56795C2.45848 3.49122 2.54601 3.4343 2.64375 3.40319C2.74181 3.37108 2.8468 3.36656 2.94725 3.39013C3.0477 3.41369 3.13974 3.46443 3.21329 3.53678C3.23438 3.56491 5.57579 5.87116 8.4375 6.61647V6.18757C8.44027 5.74158 8.53085 5.30051 8.70407 4.88953C8.8773 4.47856 9.12978 4.10572 9.44709 3.79232C9.76441 3.47892 10.1404 3.2311 10.5534 3.06299C10.9665 2.89488 11.4087 2.80979 11.8547 2.81257C12.44 2.82091 13.0132 2.98074 13.5184 3.27647C14.0237 3.57221 14.4436 3.99376 14.7375 4.50007H16.875C16.9861 4.49972 17.0947 4.53225 17.1873 4.59356C17.2799 4.65487 17.3523 4.74222 17.3953 4.8446C17.4358 4.9485 17.4461 5.06175 17.425 5.17125C17.4038 5.28075 17.3521 5.38202 17.2758 5.46335Z" fill="white"/>
</svg>
