<svg width="18" height="18" viewBox="0 0 18 18" fill="none" xmlns="http://www.w3.org/2000/svg">
<path d="M11.1676 2.5875H6.83256C6.53256 2.5875 6.29256 2.3475 6.29256 2.0475C6.29256 1.7475 6.53256 1.5 6.83256 1.5H11.1676C11.4676 1.5 11.7076 1.74 11.7076 2.04C11.7076 2.34 11.4676 2.5875 11.1676 2.5875ZM10.5001 14.976V12.771C10.5001 11.4135 11.4151 10.4985 12.7726 10.4985H14.9776C15.1501 10.4985 15.3151 10.5135 15.4726 10.5435C15.4876 10.3635 15.5026 10.1835 15.5026 9.996C15.5026 6.4035 12.5851 3.486 9.00006 3.486C5.41506 3.486 2.49756 6.4035 2.49756 9.996C2.49756 13.581 5.41506 16.4985 9.00006 16.4985C9.63756 16.4985 10.2451 16.3935 10.8301 16.2285C10.6081 15.8488 10.494 15.4158 10.5001 14.976ZM9.56256 9.7485C9.56256 10.056 9.30756 10.311 9.00006 10.311C8.69256 10.311 8.43756 10.056 8.43756 9.7485V5.9985C8.43756 5.691 8.69256 5.436 9.00006 5.436C9.30756 5.436 9.56256 5.691 9.56256 5.9985V9.7485Z" fill="#70707C"/>
<path d="M14.9775 11.25H12.78C11.82 11.25 11.25 11.82 11.25 12.7725V14.9775C11.25 15.93 11.82 16.5 12.78 16.5H14.9775C15.93 16.5 16.5 15.93 16.5 14.9775V12.7725C16.5 11.82 15.93 11.25 14.9775 11.25ZM13.44 15.045C13.44 15.285 13.245 15.48 12.9975 15.48C12.8821 15.48 12.7715 15.4342 12.6899 15.3526C12.6083 15.271 12.5625 15.1604 12.5625 15.045V12.705C12.5625 12.465 12.7575 12.27 12.9975 12.27C13.245 12.27 13.44 12.465 13.44 12.705V15.045ZM15.1875 15.045C15.1875 15.285 14.9925 15.48 14.7525 15.48C14.5125 15.48 14.31 15.285 14.31 15.045V12.705C14.31 12.465 14.5125 12.27 14.7525 12.27C14.9925 12.27 15.1875 12.465 15.1875 12.705V15.045Z" fill="#70707C"/>
</svg>
